<?xml version="1.0" standalone="no"?>
<!DOCTYPE svg PUBLIC "-//W3C//DTD SVG 20010904//EN"
 "http://www.w3.org/TR/2001/REC-SVG-20010904/DTD/svg10.dtd">
<svg version="1.0" xmlns="http://www.w3.org/2000/svg"
 width="531.000000pt" height="531.000000pt" viewBox="0 0 531.000000 531.000000"
 preserveAspectRatio="xMidYMid meet">
<metadata>
Created by potrace 1.11, written by Peter Selinger 2001-2013
</metadata>
<g transform="translate(0.000000,531.000000) scale(0.100000,-0.100000)"
fill="#000000" stroke="none">
<path d="M3386 4525 c-6 -17 16 -31 33 -21 13 9 2 36 -14 36 -7 0 -16 -7 -19
-15z"/>
<path d="M4048 4375 c-2 -2 -25 -5 -53 -8 -177 -19 -210 -40 -465 -293 -118
-117 -227 -218 -243 -223 -15 -6 -80 -13 -145 -16 -161 -7 -247 -27 -319 -74
-76 -49 -173 -145 -173 -171 0 -31 37 -104 91 -178 27 -37 49 -69 49 -72 0 -3
-47 -52 -105 -109 -57 -57 -107 -113 -111 -124 -4 -12 1 -29 13 -45 l20 -27
-39 -37 c-22 -21 -51 -41 -65 -44 -13 -4 -29 -16 -34 -28 -6 -13 -21 -23 -37
-24 -31 -2 -62 -35 -62 -64 0 -10 -4 -17 -8 -14 -5 3 -23 -4 -40 -15 -18 -10
-42 -19 -54 -19 -12 0 -29 -7 -38 -15 -15 -14 -20 -14 -45 -1 -26 14 -48 12
-70 -5 -5 -4 -39 -7 -75 -8 -57 0 -67 2 -75 21 -6 12 -19 26 -29 32 -11 6 -34
28 -53 48 -41 44 -117 94 -158 104 -38 9 -45 20 -35 53 15 53 2 143 -29 206
-34 67 -59 98 -112 138 -46 35 -140 68 -199 72 -25 1 -46 3 -48 4 -1 0 5 18
13 38 21 51 29 139 16 193 -8 35 -7 48 3 60 20 22 56 97 56 115 0 21 -92 -50
-187 -144 -302 -298 -469 -641 -518 -1066 -11 -88 -4 -349 10 -413 3 -15 7
-41 9 -59 7 -56 47 -205 77 -284 135 -367 383 -671 718 -879 175 -109 425
-203 596 -226 28 -3 53 -8 57 -10 9 -6 190 -17 258 -17 62 0 205 11 241 18 13
3 38 7 54 9 17 2 51 9 75 16 25 6 63 16 85 22 128 34 312 115 432 190 154 96
334 253 433 378 l34 43 -49 -5 c-28 -3 -58 -9 -67 -13 -13 -5 -22 3 -37 34
-53 103 -163 170 -289 176 -88 5 -176 -23 -235 -73 -22 -19 -30 -11 -46 48
-15 49 -54 111 -98 152 -31 30 -122 78 -147 78 -9 0 -16 8 -16 20 0 11 -1 23
-2 28 -1 4 -5 26 -10 50 -4 24 -19 66 -33 94 -16 32 -25 66 -25 97 0 48 -10
89 -36 148 -14 30 -13 33 11 57 15 15 23 31 20 36 -4 6 7 18 24 28 21 11 33
27 37 49 4 22 14 35 35 43 18 8 32 23 36 39 3 14 15 32 25 39 10 7 18 20 18
28 0 18 28 48 53 57 11 4 21 16 24 26 4 16 11 18 36 14 30 -4 40 3 143 107
l112 112 54 -39 c60 -45 151 -97 186 -108 20 -6 34 4 91 62 127 129 149 191
166 454 3 47 9 98 14 115 5 19 84 105 223 244 118 118 226 235 240 260 49 83
63 152 63 306 0 102 -4 145 -13 157 -8 9 -36 18 -65 22 -63 7 -156 13 -159 10z
m125 -56 c26 -1 47 -5 47 -8 0 -3 -55 -61 -122 -129 -123 -122 -123 -122 -395
-284 -171 -102 -268 -165 -260 -170 8 -4 24 -9 38 -12 13 -2 39 -10 57 -16
l33 -12 -43 -47 c-24 -25 -77 -84 -118 -130 -97 -108 -370 -381 -381 -381 -5
0 -9 3 -9 8 -1 4 -17 25 -36 47 l-35 39 -112 -112 c-62 -62 -117 -112 -122
-112 -12 0 -95 81 -95 93 0 5 44 53 98 107 53 53 105 106 115 117 17 20 16 23
-42 104 -34 46 -70 102 -81 124 l-20 40 54 52 c119 113 178 135 396 148 76 4
162 19 186 33 7 4 107 100 221 213 215 212 246 237 325 263 50 17 173 33 223
30 17 -2 51 -4 78 -5z m-315 -366 c-8 -10 -22 -27 -31 -38 -9 -11 -43 -54 -76
-95 -67 -81 -66 -85 11 -95 26 -4 48 -10 48 -14 0 -6 -50 -36 -200 -119 -25
-13 -49 -28 -55 -32 -5 -4 -41 -25 -80 -45 l-70 -38 55 59 c30 32 76 81 102
109 46 49 47 50 25 61 -12 7 -41 17 -64 24 l-42 13 102 60 c56 33 140 84 187
113 90 56 113 65 88 37z m-896 -1017 c-61 -62 -102 -111 -102 -123 0 -11 9
-32 21 -47 l21 -26 -31 -27 c-17 -15 -31 -33 -31 -40 0 -7 -10 -13 -22 -13
-31 -1 -59 -23 -61 -48 -1 -13 -11 -23 -27 -27 -34 -9 -50 -24 -50 -46 0 -13
-7 -19 -23 -19 -28 0 -67 -26 -67 -46 0 -9 -11 -14 -35 -14 -22 0 -41 -7 -51
-18 -14 -16 -21 -17 -60 -7 -24 6 -50 19 -57 29 -12 17 -11 22 5 38 17 17 19
52 3 78 -3 5 -1 28 6 50 9 28 18 40 31 40 12 0 24 12 33 33 7 17 23 40 34 49
12 10 21 29 21 43 0 18 7 28 24 34 25 10 39 33 40 66 1 14 8 20 25 21 26 2 54
31 44 47 -4 6 5 7 23 3 55 -13 67 -7 167 93 l100 99 60 -59 61 -59 -102 -104z"/>
<path d="M2921 4221 c-15 -10 -8 -41 9 -41 15 0 25 29 14 40 -5 5 -15 5 -23 1z"/>
<path d="M2139 4194 c0 -5 -2 -20 -4 -34 -1 -14 -6 -68 -9 -120 -8 -109 -10
-128 -17 -134 -3 -3 -47 -8 -99 -12 -52 -3 -106 -8 -120 -9 -14 -2 -36 -4 -49
-4 -54 -2 -10 -10 89 -16 164 -11 185 -16 186 -45 1 -14 5 -56 8 -95 4 -38 8
-89 10 -113 4 -60 16 -65 17 -6 0 27 2 58 4 68 2 11 7 54 10 95 3 42 7 77 9
78 1 1 35 5 76 9 41 3 86 8 100 9 14 2 47 4 74 4 99 2 35 13 -154 27 -47 3
-88 9 -92 12 -7 7 -12 57 -24 207 -6 71 -12 106 -15 79z"/>
<path d="M2720 4174 c-10 -11 -10 -17 0 -28 15 -19 40 -10 40 14 0 24 -25 33
-40 14z"/>
<path d="M4106 3565 c-19 -19 -13 -35 14 -35 26 0 35 19 18 37 -13 13 -17 12
-32 -2z"/>
<path d="M1696 3332 c-2 -4 -1 -14 4 -21 11 -19 41 -6 34 14 -6 16 -29 20 -38
7z"/>
<path d="M2108 3116 c-24 -18 -23 -63 1 -76 28 -14 38 -13 61 10 21 21 18 46
-8 68 -20 15 -32 15 -54 -2z"/>
<path d="M4652 3006 c1 -10 8 -17 13 -17 15 1 12 24 -3 29 -9 3 -13 -2 -10
-12z"/>
<path d="M4533 2929 c-16 -16 -5 -39 17 -39 20 0 30 17 22 38 -5 15 -24 16
-39 1z"/>
<path d="M4034 2850 c-30 -12 -36 -35 -15 -54 21 -19 47 -12 54 14 7 28 -14
50 -39 40z"/>
<path d="M4660 2839 c0 -12 5 -19 12 -17 18 6 20 25 3 31 -10 5 -15 0 -15 -14z"/>
<path d="M3345 2310 c-13 -15 -14 -23 -5 -40 16 -30 64 -24 68 9 6 42 -35 62
-63 31z"/>
<path d="M2962 2206 c1 -10 8 -17 13 -17 15 1 12 24 -3 29 -9 3 -13 -2 -10
-12z"/>
<path d="M3984 2129 c1 -18 -6 -22 -39 -26 -53 -5 -58 -13 -8 -13 35 0 42 -3
47 -25 4 -14 4 -31 0 -37 -4 -7 -3 -8 4 -4 7 4 12 20 12 37 0 28 2 29 47 29
55 0 54 6 -2 14 -22 3 -41 5 -42 6 -2 0 -3 9 -3 20 0 11 -4 20 -9 20 -4 0 -8
-10 -7 -21z"/>
</g>
</svg>
