<?xml version="1.0" encoding="utf-8"?>
<!-- Generator: Adobe Illustrator 16.0.4, SVG Export Plug-In . SVG Version: 6.00 Build 0)  -->
<!DOCTYPE svg PUBLIC "-//W3C//DTD SVG 1.1//EN" "http://www.w3.org/Graphics/SVG/1.1/DTD/svg11.dtd">
<svg version="1.1" id="Layer_1" xmlns="http://www.w3.org/2000/svg" xmlns:xlink="http://www.w3.org/1999/xlink" x="0px" y="0px"
	 width="240.94531px" height="136.0625px" viewBox="0 0 240.94531 136.0625" enable-background="new 0 0 240.94531 136.0625"
	 xml:space="preserve">
<g>
	<path d="M185.73145,81.03418c-17.20605,0-31.20312-13.99609-31.20312-31.20117c0-17.20312,13.99707-31.19922,31.20312-31.19922
		c17.20312,0,31.19922,13.99609,31.19922,31.19922C216.93066,67.03809,202.93457,81.03418,185.73145,81.03418z M185.73145,19.88379
		c-16.5166,0-29.95312,13.43555-29.95312,29.94922c0,16.51562,13.43652,29.95117,29.95312,29.95117
		c16.51367,0,29.94922-13.43555,29.94922-29.95117C215.68066,33.31934,202.24512,19.88379,185.73145,19.88379z"/>
</g>
<g>
	<path d="M201.30566,71.45801c-11.92383,0-21.62402-9.70117-21.62402-21.625s9.7002-21.625,21.62402-21.625
		c11.92578,0,21.62793,9.70117,21.62793,21.625S213.23145,71.45801,201.30566,71.45801z M201.30566,29.1084
		c-11.42676,0-20.72363,9.29688-20.72363,20.72461s9.29688,20.72461,20.72363,20.72461
		c11.42969,0,20.72754-9.29688,20.72754-20.72461S212.73535,29.1084,201.30566,29.1084z"/>
</g>
<g>
	<path d="M217.1123,60.16504c-5.91699,0-10.73047-4.81445-10.73047-10.73242c0-5.91699,4.81348-10.73047,10.73047-10.73047
		c5.91797,0,10.73242,4.81348,10.73242,10.73047C227.84473,55.35059,223.03027,60.16504,217.1123,60.16504z M217.1123,39.20215
		c-5.64062,0-10.23047,4.58984-10.23047,10.23047c0,5.64258,4.58984,10.23242,10.23047,10.23242
		c5.64258,0,10.23242-4.58984,10.23242-10.23242C227.34473,43.79199,222.75488,39.20215,217.1123,39.20215z"/>
</g>
<g>
	<path d="M22.16504,20.39746h-6.27539c-0.32812,0-0.42676-0.19629-0.42676-0.49219v-0.49219
		c0-0.26367,0.19727-0.42773,0.42676-0.42773H30.0166c0.2627,0,0.42676,0.19727,0.42676,0.42773v0.55859
		c0,0.22949-0.16406,0.42578-0.42676,0.42578h-6.30762v21.15723c0,0.22949-0.19727,0.42676-0.52637,0.42676H22.5918
		c-0.22949,0-0.42676-0.19727-0.42676-0.42676V20.39746z"/>
	<path d="M34.84766,19.41309c0-0.23047,0.16406-0.42773,0.42578-0.42773h8.14844c4.00781,0,7.32617,3.02246,7.32617,7.03027
		c0,3.31836-2.30078,5.97949-5.4209,6.86621l4.7959,8.50879c0.16406,0.2627,0.09863,0.59082-0.22949,0.59082H48.875
		c-0.23047,0-0.36133-0.09766-0.45996-0.29492l-4.76367-8.60742c-0.42676,0.0332-0.78809,0.0332-1.21582,0.0332h-6.04492v8.44238
		c0,0.22949-0.19727,0.42676-0.52539,0.42676h-0.5918c-0.22949,0-0.42578-0.19727-0.42578-0.42676V19.41309z M43.35547,31.73145
		c3.1543,0,5.81445-2.46289,5.81445-5.71582c0-3.12012-2.66016-5.51855-5.84766-5.51855h-6.89844v11.23438H43.35547z"/>
	<path d="M54.23242,41.58789l10.11719-22.86523c0.06641-0.13184,0.23047-0.22949,0.39453-0.22949h0.09961
		c0.16406,0,0.32812,0.03223,0.42578,0.22949l10.02051,22.86523c0.06543,0.19629,0.06543,0.39355-0.2959,0.39355h-0.85352
		c-0.23047,0-0.39453-0.16406-0.46094-0.29492l-2.66016-6.04492h-12.5498l-2.62793,6.04492
		c-0.06641,0.13086-0.23047,0.29492-0.45996,0.29492h-0.91992C54.23242,41.98145,54.13281,41.85059,54.23242,41.58789z
		 M70.46094,34.36035l-5.61719-13.24023h-0.06641l-5.7168,13.24023H70.46094z"/>
	<path d="M77.67188,39.28809l0.42773-0.39453c0.16406-0.16406,0.32812-0.22949,0.55859,0
		c0.72266,0.72266,1.87207,2.03711,4.04004,2.03711c2.79297,0,4.79688-1.93848,4.79688-5.84766V19.41309
		c0-0.26367,0.19727-0.42773,0.45898-0.42773h0.6582c0.22949,0,0.42676,0.19727,0.42676,0.42773V35.0498
		c0,4.59961-2.46387,7.26074-6.37402,7.26074c-2.89062,0-4.46777-1.77441-5.02637-2.46387
		C77.50781,39.64941,77.50781,39.45215,77.67188,39.28809z"/>
	<path d="M93.47461,19.41309c0-0.23047,0.19727-0.42773,0.42676-0.42773h13.17383c0.22949,0,0.42676,0.19727,0.42676,0.42773
		v0.55859c0,0.22949-0.19727,0.42578-0.42676,0.42578H95.05176v9.06836h10.41309c0.23047,0,0.42773,0.19727,0.42773,0.42578v0.55859
		c0,0.23047-0.19727,0.42773-0.42773,0.42773H95.05176v9.72461h12.02344c0.22949,0,0.42676,0.19727,0.42676,0.42676v0.52539
		c0,0.22949-0.19727,0.42676-0.42676,0.42676H93.90137c-0.22949,0-0.42676-0.19727-0.42676-0.42676V19.41309z"/>
	<path d="M123.37207,18.65723c3.35059,0,5.84766,1.11719,7.98242,3.05469c0.16504,0.16406,0.19727,0.42773,0.0332,0.5918
		l-0.52539,0.55859c-0.19727,0.19727-0.36133,0.16406-0.55859-0.0332c-1.87305-1.67578-4.23828-2.69336-6.93164-2.69336
		c-5.74902,0-10.25,4.69727-10.25,10.38086c0,5.65039,4.50098,10.31543,10.25,10.31543c2.8252,0,4.96094-1.11621,6.93164-2.75879
		c0.19727-0.16504,0.39453-0.16504,0.52539-0.06641l0.55859,0.55859c0.16406,0.13086,0.16406,0.39453,0,0.55859
		c-2.2334,2.16797-5.0918,3.18652-8.01562,3.18652c-6.57031,0-11.89258-5.19043-11.89258-11.79395
		C111.47949,23.94629,116.80176,18.65723,123.37207,18.65723z"/>
	<path d="M141.96777,20.39746h-6.27539c-0.32812,0-0.42676-0.19629-0.42676-0.49219v-0.49219
		c0-0.26367,0.19727-0.42773,0.42676-0.42773h14.12695c0.2627,0,0.42676,0.19727,0.42676,0.42773v0.55859
		c0,0.22949-0.16406,0.42578-0.42676,0.42578h-6.30762v21.15723c0,0.22949-0.19727,0.42676-0.52539,0.42676h-0.5918
		c-0.22949,0-0.42676-0.19727-0.42676-0.42676V20.39746z"/>
</g>
<g>
	<g>
		<g>
			<rect x="15.46484" y="49.49707" width="218.00098" height="1.41797"/>
			<path d="M233.46582,51.66504H15.46484c-0.41406,0-0.75-0.33594-0.75-0.75v-1.41797c0-0.41406,0.33594-0.75,0.75-0.75h218.00098
				c0.41406,0,0.75,0.33594,0.75,0.75v1.41797C234.21582,51.3291,233.87988,51.66504,233.46582,51.66504z"/>
		</g>
	</g>
</g>
<g>
	<path d="M96.5127,123.38965c-33.84863,0-62.4668-23.22949-70.71777-54.58105h-2.07129
		c8.2998,32.46582,37.83301,56.58105,72.78906,56.58105c16.8916,0,32.51465-5.63574,45.09277-15.11621
		c-2.80469,1.31055-5.69824,2.41797-8.65918,3.33105C122.2041,119.81543,109.7627,123.38965,96.5127,123.38965z"/>
	<path d="M155.01074,94.03613c1.01367-0.21387,2.01367-0.46094,3.00098-0.74023
		c8.32812-11.85254,13.32031-26.19629,13.60156-41.66602h-1.98242C169.33594,67.50391,163.92969,82.15918,155.01074,94.03613z"/>
	<path d="M156.54688,95.33984c-1,0.23926-2.01465,0.44141-3.03809,0.61719c-3.73926,4.65137-8.03027,8.83789-12.77832,12.45898
		c3.02051-1.41211,5.93066-3.06543,8.71973-4.93457C152.00293,100.94141,154.37598,98.2207,156.54688,95.33984z"/>
	<path d="M158.8252,95.88574c-2.91602,2.84277-6.05859,5.37207-9.375,7.5957c-2.45312,2.43945-5.07715,4.70605-7.84473,6.79199
		c6.81641-3.18652,13.11914-7.52539,18.65234-12.91895c1.56641-1.52734,3.04883-3.11914,4.44727-4.76758
		c-1.38477,0.61133-2.80371,1.1582-4.25488,1.63867C159.91504,94.78418,159.38184,95.34375,158.8252,95.88574z"/>
	<path d="M66.96094,95.88574C59.12891,88.25,53.44141,78.9668,50.2002,68.80859h-2.14941
		c3.30566,10.71875,9.24121,20.51562,17.47852,28.5459c12.74316,12.42383,29.56445,19.26562,47.36621,19.26562
		c6.8916,0,13.63184-1.03711,20.05078-3.01562c2.70898-1.56641,5.30762-3.2998,7.78418-5.18848
		c-8.61328,4.02441-18.07129,6.15137-27.83496,6.15137C95.63281,114.56738,79.31934,107.93262,66.96094,95.88574z"/>
	<path d="M171.61328,51.62988h7.03906c-0.64551,14.86914-6.22461,28.85352-15.87402,40.04004
		c1.45898-0.5918,2.87695-1.2627,4.25684-1.99512c8.34863-11.00684,13.12109-24.2666,13.66602-38.26758h-9.08203
		C171.61816,51.48145,171.61426,51.55566,171.61328,51.62988z"/>
	<path d="M140.73047,108.41602c-2.47656,1.88867-5.0752,3.62207-7.78418,5.18848c2.96094-0.91309,5.85449-2.02051,8.65918-3.33105
		c2.76758-2.08594,5.3916-4.35254,7.84473-6.79199C146.66113,105.35059,143.75098,107.00391,140.73047,108.41602z"/>
	<path d="M145.29785,95.05957c-18.42871,0-34.28906-10.64648-41.69824-26.25098h-1.77734
		c7.52148,16.52539,24.13281,27.85645,43.47559,27.85645c2.80273,0,5.54297-0.25098,8.21094-0.70801
		c0.50879-0.63379,1.01367-1.27051,1.50195-1.9209C151.87891,94.7002,148.63281,95.05957,145.29785,95.05957z"/>
	<path d="M156.54688,95.33984c1.32422-0.31641,2.625-0.69141,3.90332-1.11426c0.7998-0.83496,1.57812-1.68555,2.32812-2.55566
		c-1.54688,0.62793-3.13965,1.16602-4.7666,1.62598C157.5293,93.98242,157.05078,94.6709,156.54688,95.33984z"/>
	<path d="M193.03418,50.63379c0.00781-0.21875-0.07324-0.42969-0.22461-0.58594c-0.15137-0.1582-0.36035-0.24609-0.57812-0.24609
		h-11.90918c0.04199,0.03125,0.0918,0.0498,0.12891,0.08789c0.19336,0.19922,0.29785,0.4668,0.29004,0.74414
		c-0.00684,0.25879-0.03027,0.51465-0.04004,0.77344h10.69043c-0.89648,16.72363-10.5127,30.91699-24.35645,38.26758
		c-0.75,0.98828-1.52344,1.96094-2.33008,2.91211C180.91992,85.42676,192.35254,69.53613,193.03418,50.63379z"/>
	<path d="M153.50879,95.95703c1.02344-0.17578,2.03809-0.37793,3.03809-0.61719c0.50391-0.66895,0.98242-1.35742,1.46484-2.04395
		c-0.9873,0.2793-1.9873,0.52637-3.00098,0.74023C154.52246,94.68652,154.01758,95.32324,153.50879,95.95703z"/>
	<path d="M171.35254,49.89941c0.1875,0.1875,0.29199,0.44336,0.29102,0.71094s-0.01953,0.53027-0.02441,0.79688h9.08203
		c0.00977-0.25879,0.0332-0.51465,0.04004-0.77344c0.00781-0.27734-0.09668-0.54492-0.29004-0.74414
		c-0.03711-0.03809-0.08691-0.05664-0.12891-0.08789h-9.11523C171.25488,49.83594,171.31055,49.85742,171.35254,49.89941z"/>
	<path d="M162.77832,91.66992c-0.75,0.87012-1.52832,1.7207-2.32812,2.55566c1.45117-0.48047,2.87012-1.02734,4.25488-1.63867
		c0.80664-0.95117,1.58008-1.92383,2.33008-2.91211C165.65527,90.40723,164.2373,91.07812,162.77832,91.66992z"/>
</g>
<g>
	<path d="M23.75391,58.84766h-1.22559v3.15039h-0.4502v-3.15039h-1.22461v-0.39941h2.90039V58.84766z"/>
	<path d="M25.1084,58.44824h0.37988l1.4502,3.5498h-0.47949l-0.41992-1.04004h-1.49023l-0.41602,1.04004h-0.47949L25.1084,58.44824z
		 M25.93848,60.60742l-0.63965-1.63867l-0.66016,1.63867H25.93848z"/>
	<path d="M29.88867,61.51758c-0.31348,0.33789-0.67383,0.50586-1.08008,0.50586c-0.23633,0-0.45605-0.05273-0.6582-0.15527
		c-0.20117-0.10352-0.375-0.23926-0.52148-0.40723s-0.2627-0.36133-0.34766-0.57812
		c-0.08594-0.2168-0.12793-0.43945-0.12793-0.66992c0-0.24023,0.04199-0.4668,0.125-0.68164
		c0.08301-0.21582,0.19824-0.40625,0.34473-0.57031c0.14648-0.16602,0.32227-0.29688,0.52539-0.39258
		c0.20312-0.09766,0.42383-0.14551,0.66016-0.14551c0.34375,0,0.625,0.07129,0.84766,0.21582
		c0.2207,0.14258,0.39062,0.33008,0.50781,0.55957l-0.3457,0.23926c-0.10645-0.20605-0.24805-0.35938-0.4248-0.45898
		c-0.17676-0.10059-0.375-0.15039-0.59473-0.15039c-0.17969,0-0.34375,0.03906-0.49023,0.11719s-0.27148,0.18164-0.375,0.31055
		c-0.10352,0.12793-0.18359,0.27637-0.24023,0.44531c-0.05664,0.16797-0.08496,0.3418-0.08496,0.52148
		c0,0.19043,0.03223,0.36914,0.09473,0.53809c0.06348,0.16797,0.15039,0.31641,0.25977,0.44434
		c0.11133,0.12891,0.24023,0.22949,0.39062,0.30273c0.15039,0.07422,0.31348,0.11035,0.49023,0.11035
		c0.38672,0,0.73438-0.18652,1.04492-0.55957v-0.49023h-0.76562v-0.33984h1.14551v1.76953h-0.37988V61.51758z"/>
	<path d="M31.05273,61.99805v-3.5498h0.4502v3.14941h1.97949v0.40039H31.05273z"/>
	<path d="M34.07227,61.99805v-3.5498h0.45117v3.5498H34.07227z"/>
	<path d="M35.92285,59.28809v2.70996h-0.4502v-3.5498h0.34961l2.20117,2.76465v-2.75977h0.44922v3.54492h-0.37988L35.92285,59.28809
		z"/>
	<path d="M41.83301,61.59766v0.40039h-2.41016v-3.5498h2.36523v0.39941h-1.91504v1.15039h1.66504v0.375h-1.66504v1.22461H41.83301z"
		/>
	<path d="M45.99805,59.19336c-0.04004-0.04688-0.09375-0.0918-0.16016-0.13477c-0.06641-0.04395-0.1416-0.08301-0.22461-0.11816
		c-0.08398-0.03418-0.1748-0.06348-0.27344-0.08496c-0.09766-0.02148-0.2002-0.03223-0.30664-0.03223
		c-0.27734,0-0.47949,0.05176-0.60742,0.15527c-0.12891,0.10352-0.19336,0.24414-0.19336,0.42383
		c0,0.09766,0.01855,0.17773,0.05469,0.24023c0.03711,0.06445,0.09473,0.11816,0.17383,0.16309
		c0.07812,0.04492,0.17578,0.08398,0.29199,0.11719c0.11621,0.03418,0.25488,0.06836,0.41504,0.10449
		c0.18359,0.04102,0.34961,0.08594,0.49805,0.13867c0.14746,0.05078,0.27441,0.11523,0.37891,0.19141
		c0.10547,0.07715,0.18555,0.16992,0.24023,0.28125c0.05469,0.10938,0.08203,0.24414,0.08203,0.4043
		c0,0.16992-0.0332,0.31738-0.09961,0.44238s-0.15723,0.22852-0.27246,0.30957c-0.11426,0.08203-0.25098,0.14258-0.40723,0.18066
		s-0.32617,0.05762-0.50977,0.05762c-0.27344,0-0.5332-0.04297-0.77734-0.12695c-0.24609-0.08594-0.46777-0.20996-0.66797-0.37305
		l0.21484-0.38086c0.05273,0.05762,0.12305,0.11426,0.20703,0.1709c0.08594,0.05664,0.18164,0.10742,0.29102,0.15234
		c0.10742,0.04492,0.22461,0.08105,0.34961,0.11035c0.125,0.02734,0.25586,0.04199,0.39258,0.04199
		c0.25391,0,0.44922-0.04492,0.58984-0.13477c0.14062-0.09082,0.20996-0.22559,0.20996-0.40527
		c0-0.09961-0.02246-0.18359-0.06738-0.25195s-0.11133-0.12793-0.19727-0.17773c-0.08691-0.05078-0.19434-0.09375-0.32227-0.13281
		c-0.12891-0.03809-0.27539-0.07715-0.4375-0.11719c-0.18066-0.04297-0.33887-0.08984-0.47559-0.14062
		c-0.13672-0.04883-0.25098-0.10938-0.34277-0.17969s-0.16016-0.1543-0.20703-0.25488s-0.07031-0.21973-0.07031-0.36035
		c0-0.16992,0.03125-0.32031,0.0957-0.44922c0.0625-0.13086,0.15137-0.24023,0.26465-0.33008s0.24805-0.1582,0.40527-0.20312
		c0.15625-0.04492,0.32617-0.06738,0.50977-0.06738c0.24023,0,0.45703,0.03711,0.65039,0.11035s0.36426,0.17188,0.51465,0.29492
		L45.99805,59.19336z"/>
	<path d="M47.05762,61.99805v-3.5498h1.47949c0.15723,0,0.30078,0.03223,0.43359,0.09668
		c0.13086,0.06543,0.24414,0.15234,0.33984,0.26074c0.09473,0.1084,0.16895,0.22949,0.22266,0.36426
		c0.05273,0.13574,0.08008,0.27344,0.08008,0.41309c0,0.14746-0.02539,0.28809-0.07617,0.4248
		c-0.04883,0.13672-0.12012,0.25879-0.21191,0.36523c-0.0918,0.10742-0.20215,0.19141-0.33008,0.25488
		s-0.27051,0.09473-0.42676,0.09473h-1.06055v1.27539H47.05762z M47.50781,60.32324h1.03516
		c0.09375,0,0.17773-0.01953,0.25195-0.05762c0.0752-0.03906,0.13965-0.0918,0.19336-0.16016
		c0.05273-0.06836,0.09473-0.14746,0.125-0.2373c0.0293-0.09082,0.04492-0.18457,0.04492-0.28516
		c0-0.10254-0.01758-0.2002-0.05273-0.29004s-0.08203-0.16797-0.14062-0.23438c-0.05859-0.06738-0.12695-0.11914-0.20508-0.15625
		c-0.07812-0.03613-0.16016-0.05469-0.24707-0.05469h-1.00488V60.32324z"/>
	<path d="M51.09766,58.44824h0.37988l1.4502,3.5498h-0.48047l-0.41992-1.04004h-1.49023l-0.41406,1.04004h-0.48047
		L51.09766,58.44824z M51.92773,60.60742l-0.64062-1.63867l-0.65918,1.63867H51.92773z"/>
	<path d="M53.14258,60.19824c0-0.21387,0.03711-0.42578,0.11328-0.6377c0.07422-0.21094,0.18457-0.40234,0.33008-0.57031
		c0.14453-0.16797,0.32227-0.30371,0.53125-0.40723c0.21094-0.10254,0.44922-0.15527,0.71484-0.15527
		c0.31738,0,0.58887,0.07227,0.81641,0.21484c0.22656,0.14453,0.39453,0.33008,0.50391,0.56055l-0.35449,0.23047
		c-0.05371-0.11328-0.11816-0.20898-0.19238-0.28516c-0.0752-0.07715-0.15625-0.13867-0.24512-0.18555
		s-0.17871-0.08008-0.27246-0.09961s-0.18555-0.03027-0.27539-0.03027c-0.19629,0-0.37109,0.04102-0.52246,0.12207
		c-0.15137,0.08203-0.27832,0.18945-0.38184,0.32031c-0.10352,0.13184-0.18164,0.28027-0.23242,0.44531
		c-0.05273,0.16504-0.07812,0.33008-0.07812,0.49805c0,0.18555,0.03125,0.36328,0.09277,0.53125
		c0.06152,0.16895,0.14746,0.31836,0.25684,0.44824c0.11035,0.12988,0.24023,0.2334,0.39062,0.30957
		c0.15039,0.07715,0.3125,0.11523,0.49023,0.11523c0.09277,0,0.18945-0.01172,0.28711-0.03516s0.19238-0.06055,0.2832-0.1123
		c0.08984-0.05176,0.17383-0.11621,0.25195-0.19434c0.07812-0.0791,0.14258-0.17383,0.19238-0.2832l0.375,0.20508
		c-0.05664,0.13281-0.13574,0.25098-0.2373,0.35254s-0.2168,0.1875-0.3457,0.25684
		c-0.12793,0.07031-0.26367,0.12402-0.40723,0.16016c-0.14355,0.03711-0.2832,0.05469-0.41992,0.05469
		c-0.24316,0-0.4668-0.05273-0.66992-0.15918s-0.37988-0.24609-0.52734-0.41699c-0.14844-0.17188-0.26367-0.36719-0.34473-0.58594
		C53.18359,60.64746,53.14258,60.4248,53.14258,60.19824z"/>
	<path d="M59.29297,61.59766v0.40039h-2.41016v-3.5498h2.36523v0.39941h-1.91504v1.15039h1.66504v0.375h-1.66504v1.22461H59.29297z"
		/>
	<path d="M61.37305,61.99805v-3.5498h2.34473v0.39941h-1.89551v1.18555h1.5957v0.375h-1.5957v1.58984H61.37305z"/>
	<path d="M65.76367,62.02344c-0.25,0-0.47852-0.05078-0.68359-0.15234s-0.38086-0.2373-0.52734-0.40625
		c-0.14648-0.16797-0.25977-0.35938-0.33984-0.57617s-0.12012-0.43945-0.12012-0.66602c0-0.23633,0.04199-0.46289,0.12793-0.67969
		c0.08496-0.2168,0.20215-0.4082,0.35156-0.57422c0.15039-0.16797,0.32812-0.2998,0.5332-0.39844
		c0.20508-0.09766,0.42773-0.14746,0.66797-0.14746c0.25,0,0.47656,0.05273,0.67969,0.15723
		c0.20312,0.10547,0.37793,0.24316,0.52539,0.41309c0.14648,0.16992,0.25977,0.3623,0.33984,0.57715s0.11914,0.43457,0.11914,0.6582
		c0,0.23633-0.04199,0.46289-0.12695,0.67969s-0.20117,0.40723-0.34961,0.57227s-0.32617,0.29688-0.53027,0.39453
		C66.22559,61.97461,66.00293,62.02344,65.76367,62.02344z M64.54785,60.22266c0,0.17969,0.0293,0.35449,0.08691,0.52344
		c0.05859,0.16797,0.1416,0.31641,0.24805,0.44727c0.10742,0.12988,0.23535,0.23242,0.38477,0.30957
		c0.15039,0.07715,0.31641,0.11523,0.5,0.11523c0.19043,0,0.36035-0.04102,0.50977-0.12207
		c0.15039-0.08203,0.27832-0.18945,0.38281-0.32031c0.10547-0.13184,0.18555-0.28125,0.24023-0.44727
		c0.05469-0.16699,0.08203-0.33594,0.08203-0.50586c0-0.17969-0.0293-0.35352-0.08691-0.52148
		c-0.05859-0.16895-0.1416-0.31738-0.25-0.44531c-0.1084-0.12891-0.2373-0.23047-0.38574-0.30762
		c-0.14746-0.07715-0.3125-0.11523-0.49219-0.11523c-0.18945,0-0.35938,0.04004-0.50977,0.12012s-0.27734,0.18555-0.38281,0.31445
		c-0.10449,0.13086-0.18555,0.2793-0.24219,0.44531C64.57617,59.87988,64.54785,60.0498,64.54785,60.22266z"/>
	<path d="M68.16211,61.99805v-3.5498h1.52051c0.15723,0,0.30078,0.03223,0.43262,0.09668
		c0.13184,0.06543,0.24512,0.15234,0.33984,0.26074c0.0957,0.1084,0.16992,0.22949,0.22266,0.36426
		c0.05273,0.13574,0.08008,0.27344,0.08008,0.41309c0,0.12402-0.01758,0.24316-0.05273,0.35742
		c-0.03516,0.11523-0.08496,0.21973-0.15039,0.3125c-0.06445,0.09277-0.14258,0.17285-0.23438,0.24023
		c-0.0918,0.06641-0.19434,0.11426-0.30762,0.14551l0.86035,1.35938h-0.50977l-0.81055-1.27539h-0.93945v1.27539H68.16211z
		 M68.61328,60.32324h1.07422c0.09375,0,0.17773-0.02051,0.25293-0.05957c0.0752-0.04102,0.13965-0.09473,0.19238-0.16309
		s0.0957-0.14746,0.125-0.2373s0.04492-0.18359,0.04492-0.28027c0-0.10059-0.01758-0.19434-0.05273-0.28223
		s-0.08203-0.16699-0.13965-0.23535c-0.05859-0.06836-0.12695-0.12207-0.20508-0.15918
		c-0.07812-0.03906-0.16113-0.05859-0.24707-0.05859h-1.04492V60.32324z"/>
	<path d="M75.32227,58.84766h-1.22461v3.15039h-0.44922v-3.15039h-1.22559v-0.39941h2.89941V58.84766z"/>
	<path d="M75.93262,61.99805v-3.5498h1.52051c0.15625,0,0.30078,0.03223,0.43164,0.09668
		c0.13281,0.06543,0.24609,0.15234,0.33984,0.26074c0.0957,0.1084,0.16992,0.22949,0.22266,0.36426
		c0.05371,0.13574,0.08008,0.27344,0.08008,0.41309c0,0.12402-0.01758,0.24316-0.05273,0.35742
		c-0.03418,0.11523-0.08398,0.21973-0.14941,0.3125s-0.14355,0.17285-0.23535,0.24023
		c-0.0918,0.06641-0.19336,0.11426-0.30664,0.14551l0.85938,1.35938h-0.50977l-0.81055-1.27539h-0.93945v1.27539H75.93262z
		 M76.38281,60.32324h1.0752c0.09277,0,0.17676-0.02051,0.25293-0.05957c0.07422-0.04102,0.13867-0.09473,0.19141-0.16309
		c0.05371-0.06836,0.0957-0.14746,0.125-0.2373c0.03027-0.08984,0.04492-0.18359,0.04492-0.28027
		c0-0.10059-0.01758-0.19434-0.05176-0.28223c-0.03516-0.08789-0.08203-0.16699-0.13965-0.23535
		c-0.05859-0.06836-0.12695-0.12207-0.20508-0.15918c-0.07812-0.03906-0.16113-0.05859-0.24805-0.05859h-1.04492V60.32324z"/>
	<path d="M80.39844,58.44824h0.37891l1.45117,3.5498h-0.48047l-0.41992-1.04004h-1.49023l-0.41504,1.04004h-0.47949
		L80.39844,58.44824z M81.22852,60.60742l-0.64062-1.63867l-0.66016,1.63867H81.22852z"/>
	<path d="M82.55273,61.46875c0.06641,0.0459,0.15625,0.08789,0.26953,0.125c0.11328,0.03613,0.24219,0.05469,0.38574,0.05469
		c0.16992,0,0.30469-0.03027,0.40527-0.08984c0.09961-0.06055,0.17578-0.15039,0.22656-0.26758
		c0.05273-0.11914,0.08594-0.26465,0.10352-0.4375c0.01562-0.17383,0.02441-0.37305,0.02441-0.60059v-1.80469h0.4502v1.80469
		c0,0.27051-0.0127,0.5166-0.03711,0.7373c-0.02539,0.22266-0.08008,0.41113-0.16602,0.56836
		c-0.08398,0.15625-0.20605,0.27734-0.36426,0.36426c-0.15918,0.08691-0.37207,0.12988-0.64258,0.12988
		c-0.2998,0-0.55664-0.07227-0.77051-0.21973L82.55273,61.46875z"/>
	<path d="M87.73828,61.59766v0.40039h-2.41016v-3.5498h2.36523v0.39941h-1.91602v1.15039h1.66602v0.375h-1.66602v1.22461H87.73828z"
		/>
	<path d="M88.15234,60.19824c0-0.21387,0.03711-0.42578,0.1123-0.6377c0.0752-0.21094,0.18457-0.40234,0.33008-0.57031
		s0.32227-0.30371,0.53223-0.40723c0.20996-0.10254,0.44824-0.15527,0.71484-0.15527c0.31641,0,0.58789,0.07227,0.81543,0.21484
		c0.22656,0.14453,0.39551,0.33008,0.50488,0.56055l-0.35547,0.23047c-0.05273-0.11328-0.11719-0.20898-0.19141-0.28516
		c-0.07617-0.07715-0.15723-0.13867-0.24609-0.18555c-0.08789-0.04688-0.17871-0.08008-0.27148-0.09961
		c-0.09375-0.01953-0.18555-0.03027-0.27539-0.03027c-0.19727,0-0.37109,0.04102-0.52344,0.12207
		c-0.15039,0.08203-0.27832,0.18945-0.38184,0.32031c-0.10352,0.13184-0.18066,0.28027-0.23242,0.44531
		s-0.07715,0.33008-0.07715,0.49805c0,0.18555,0.03027,0.36328,0.0918,0.53125c0.0625,0.16895,0.14844,0.31836,0.25781,0.44824
		s0.24023,0.2334,0.39062,0.30957c0.14941,0.07715,0.3125,0.11523,0.48926,0.11523c0.09277,0,0.18945-0.01172,0.28809-0.03516
		c0.09766-0.02344,0.19141-0.06055,0.28223-0.1123c0.08984-0.05176,0.17383-0.11621,0.25293-0.19434
		c0.07812-0.0791,0.14258-0.17383,0.19141-0.2832l0.375,0.20508c-0.05664,0.13281-0.13477,0.25098-0.23633,0.35254
		c-0.10254,0.10156-0.2168,0.1875-0.3457,0.25684c-0.12891,0.07031-0.26367,0.12402-0.4082,0.16016
		c-0.14258,0.03711-0.2832,0.05469-0.41992,0.05469c-0.24219,0-0.4668-0.05273-0.66992-0.15918s-0.37891-0.24609-0.52734-0.41699
		c-0.14844-0.17188-0.26367-0.36719-0.34473-0.58594C88.19336,60.64746,88.15234,60.4248,88.15234,60.19824z"/>
	<path d="M94.45215,58.84766h-1.22559v3.15039h-0.44922v-3.15039h-1.22461v-0.39941h2.89941V58.84766z"/>
	<path d="M97.20312,58.44824h0.37891l1.45117,3.5498h-0.48047l-0.41992-1.04004h-1.49023l-0.41504,1.04004h-0.47949
		L97.20312,58.44824z M98.0332,60.60742l-0.64062-1.63867l-0.66016,1.63867H98.0332z"/>
	<path d="M100.05762,59.28809v2.70996h-0.4502v-3.5498h0.34961l2.20117,2.76465v-2.75977h0.44922v3.54492h-0.37988
		L100.05762,59.28809z"/>
	<path d="M103.55664,61.99805v-3.5498h1.23047c0.2832,0,0.5332,0.0459,0.74805,0.13965s0.39453,0.2207,0.53711,0.38086
		c0.14355,0.15918,0.25098,0.34668,0.32227,0.5625c0.07227,0.21484,0.10742,0.44336,0.10742,0.6875
		c0,0.26953-0.03906,0.51367-0.11914,0.73242c-0.08008,0.21777-0.19531,0.4043-0.3457,0.55957s-0.33008,0.27441-0.54297,0.36035
		c-0.21094,0.08398-0.44727,0.12695-0.70703,0.12695H103.55664z M106.04688,60.21875c0-0.20117-0.02734-0.38477-0.08203-0.55273
		c-0.05469-0.16895-0.13672-0.3125-0.24512-0.43359c-0.1084-0.11914-0.24121-0.21289-0.39746-0.28125
		s-0.33496-0.10352-0.53516-0.10352h-0.7793v2.75h0.7793c0.20312,0,0.38477-0.03516,0.54297-0.10449
		c0.1582-0.07031,0.28906-0.16699,0.39453-0.29004s0.18555-0.26953,0.24023-0.4375S106.04688,60.41406,106.04688,60.21875z"/>
	<path d="M109.72754,58.46875h0.4248l0.4707,1.23438l0.47461-1.23438h0.4248l-0.61523,1.54492l0.61035,1.46484l1.19922-3.03027
		h0.49023l-1.48438,3.5498h-0.39062l-0.70508-1.6748l-0.70898,1.6748h-0.39062l-1.48047-3.5498h0.48535l1.20508,3.03027
		l0.60449-1.46484L109.72754,58.46875z"/>
	<path d="M116.62695,58.44824v3.5498h-0.44922v-1.61523h-1.95508v1.61523h-0.4502v-3.5498h0.4502v1.53418h1.95508v-1.53418
		H116.62695z"/>
	<path d="M118.6582,58.44824h0.37891l1.45117,3.5498h-0.48047l-0.41992-1.04004h-1.49023l-0.41504,1.04004h-0.47949
		L118.6582,58.44824z M119.48828,60.60742l-0.64062-1.63867l-0.66016,1.63867H119.48828z"/>
	<path d="M123.28711,58.84766h-1.22461v3.15039h-0.44922v-3.15039h-1.22559v-0.39941h2.89941V58.84766z"/>
	<path d="M127.52246,58.84766h-1.22559v3.15039h-0.44922v-3.15039h-1.22461v-0.39941h2.89941V58.84766z"/>
	<path d="M130.9873,58.44824v3.5498h-0.4502v-1.61523h-1.95508v1.61523h-0.44922v-3.5498h0.44922v1.53418h1.95508v-1.53418H130.9873
		z"/>
	<path d="M134.34766,61.59766v0.40039h-2.41016v-3.5498h2.36523v0.39941h-1.91504v1.15039h1.66504v0.375h-1.66504v1.22461H134.34766
		z"/>
	<path d="M135.19727,58.44824l1.07422,1.84961l1.08594-1.84961h0.49023l-1.35059,2.25488v1.29492h-0.4502v-1.30469l-1.34473-2.24512
		H135.19727z"/>
	<path d="M139.61719,61.99805v-3.5498h1.23047c0.2832,0,0.53223,0.0459,0.74707,0.13965
		c0.21582,0.09375,0.39453,0.2207,0.53809,0.38086c0.14258,0.15918,0.25,0.34668,0.32227,0.5625
		c0.07129,0.21484,0.10742,0.44336,0.10742,0.6875c0,0.26953-0.04004,0.51367-0.12012,0.73242
		c-0.08008,0.21777-0.19434,0.4043-0.34473,0.55957s-0.33105,0.27441-0.54297,0.36035
		c-0.21094,0.08398-0.44727,0.12695-0.70703,0.12695H139.61719z M142.10742,60.21875c0-0.20117-0.02734-0.38477-0.08203-0.55273
		c-0.05566-0.16895-0.13672-0.3125-0.24609-0.43359c-0.10742-0.11914-0.24023-0.21289-0.39648-0.28125
		c-0.15723-0.06836-0.33594-0.10352-0.53516-0.10352h-0.78027v2.75h0.78027c0.20312,0,0.38379-0.03516,0.54199-0.10449
		c0.15918-0.07031,0.29004-0.16699,0.39551-0.29004c0.10449-0.12305,0.18457-0.26953,0.24023-0.4375
		C142.08008,60.59766,142.10742,60.41406,142.10742,60.21875z"/>
	<path d="M144.73828,62.02344c-0.25,0-0.47852-0.05078-0.68359-0.15234s-0.38086-0.2373-0.52734-0.40625
		c-0.14648-0.16797-0.25977-0.35938-0.33984-0.57617s-0.12012-0.43945-0.12012-0.66602c0-0.23633,0.04199-0.46289,0.12793-0.67969
		c0.08496-0.2168,0.20215-0.4082,0.35156-0.57422c0.15039-0.16797,0.32812-0.2998,0.5332-0.39844
		c0.20508-0.09766,0.42773-0.14746,0.66797-0.14746c0.25,0,0.47656,0.05273,0.67969,0.15723
		c0.20312,0.10547,0.37793,0.24316,0.52539,0.41309c0.14648,0.16992,0.25977,0.3623,0.33984,0.57715s0.11914,0.43457,0.11914,0.6582
		c0,0.23633-0.04199,0.46289-0.12695,0.67969s-0.20117,0.40723-0.34961,0.57227s-0.32617,0.29688-0.53027,0.39453
		C145.2002,61.97461,144.97754,62.02344,144.73828,62.02344z M143.52246,60.22266c0,0.17969,0.0293,0.35449,0.08691,0.52344
		c0.05859,0.16797,0.1416,0.31641,0.24805,0.44727c0.10742,0.12988,0.23535,0.23242,0.38477,0.30957
		c0.15039,0.07715,0.31641,0.11523,0.5,0.11523c0.19043,0,0.36035-0.04102,0.50977-0.12207
		c0.15039-0.08203,0.27832-0.18945,0.38281-0.32031c0.10547-0.13184,0.18555-0.28125,0.24023-0.44727
		c0.05469-0.16699,0.08203-0.33594,0.08203-0.50586c0-0.17969-0.0293-0.35352-0.08691-0.52148
		c-0.05859-0.16895-0.1416-0.31738-0.25-0.44531c-0.1084-0.12891-0.2373-0.23047-0.38574-0.30762
		c-0.14746-0.07715-0.3125-0.11523-0.49219-0.11523c-0.18945,0-0.35938,0.04004-0.50977,0.12012s-0.27734,0.18555-0.38281,0.31445
		c-0.10449,0.13086-0.18555,0.2793-0.24219,0.44531C143.55078,59.87988,143.52246,60.0498,143.52246,60.22266z"/>
</g>
</svg>
